<svg xmlns="http://www.w3.org/2000/svg" shape-rendering="crispEdges" viewBox="0 0 63 61"><path stroke="rgba(255,255,255,0.00)" d="M29 1h1m26 15h1M9 38h1m-1 7h1m-2 4h1m-1 1h1m28 7h1m7 2h1m-26 1h1"/><path stroke="rgba(255,255,255,0.01)" d="M30 1h2m9 11h1m2 3h1m12 2h1M2 20h1"/><path stroke="rgba(255,238,170,0.06)" d="M26 2h1m27 33h1m-2 8h1m-22 8h1m2 4h1"/><path stroke="rgba(250,245,148,0.20)" d="M27 2h1m9 2h1M1 30h1"/><path stroke="rgba(252,244,140,0.37)" d="M28 2h1"/><path stroke="rgba(253,243,135,0.50)" d="M29 2h1"/><path stroke="rgba(253,242,130,0.55)" d="M30 2h1"/><path stroke="rgba(253,244,129,0.53)" d="M31 2h1"/><path stroke="rgba(253,244,135,0.45)" d="M32 2h1"/><path stroke="rgba(252,242,144,0.31)" d="M33 2h1"/><path stroke="rgba(247,247,151,0.13)" d="M34 2h1"/><path stroke="rgba(255,255,170,0.01)" d="M35 2h1M5 36h1m48 9h1"/><path stroke="rgba(255,245,157,0.10)" d="M24 3h1"/><path stroke="rgba(252,242,141,0.40)" d="M25 3h1M9 51h1"/><path stroke="rgba(254,242,131,0.69)" d="M26 3h1"/><path stroke="rgba(254,241,125,0.88)" d="M27 3h1"/><path stroke="rgba(254,241,122,0.97)" d="M28 3h1M7 18h1"/><path stroke="rgba(255,241,120,1.00)" d="M29 3h1"/><path stroke="#fff177" d="M30 3h2m-6 1h9M24 5h12M23 6h14M23 7h15M23 8h14M22 9h17m-18 1h18m-18 1h18m-18 1h18m-18 1h18m-18 1h18m-18 1h18m-18 1h18m-18 1h18m7 0h2m2 0h3M9 18h4m8 0h18m4 0h12M6 19h12m4 0h17m2 0h15M5 20h14m2 0h36M5 21h52M4 22h55M3 23h56M3 24h23m8 0h25M3 25h21m11 0h24M3 26h21m12 0h23M3 27h20m14 0h22M3 28h20m14 0h22M3 29h20m15 0h20M3 30h20m15 0h20M5 31h18m16 0h16M4 32h19m16 0h17M5 33h1m1 0h16m16 0h13m1 0h1M7 34h16m15 0h14M8 35h2m1 0h13m14 0h8m-35 1h13m14 0h7m-28 1h8m12 0h9m-29 1h8m12 0h11m-31 1h9m8 0h14m-33 1h14m4 0h16m-35 1h36m-37 1h38m-38 1h38m-38 1h39m-40 1h40m-41 1h42m-42 1h42m-42 1h20m2 0h20m-42 1h20m3 0h19m-42 1h18m5 0h18m-41 1h19m4 0h18m-41 1h18m6 0h17m-40 1h15m9 0h13m1 0h1m-39 1h15m10 0h12m-36 1h1m1 0h10m13 0h2m1 0h8m-34 1h10m15 0h7m-30 1h2m2 0h3m19 0h1"/><path stroke="rgba(255,241,120,0.99)" d="M32 3h1"/><path stroke="rgba(254,241,123,0.95)" d="M33 3h1"/><path stroke="rgba(254,243,128,0.80)" d="M34 3h1"/><path stroke="rgba(253,242,137,0.47)" d="M35 3h1"/><path stroke="rgba(255,246,151,0.11)" d="M36 3h1"/><path stroke="rgba(255,255,170,0.02)" d="M22 4h1m-2 1h1m19 9h1m10 27h1"/><path stroke="rgba(252,242,145,0.31)" d="M23 4h1m33 14h1"/><path stroke="rgba(254,241,132,0.74)" d="M24 4h1"/><path stroke="rgba(254,242,123,0.96)" d="M25 4h1"/><path stroke="rgba(254,242,122,0.98)" d="M35 4h1m14 37h1"/><path stroke="rgba(254,242,130,0.71)" d="M36 4h1"/><path stroke="rgba(253,243,140,0.42)" d="M22 5h1"/><path stroke="rgba(254,242,126,0.90)" d="M23 5h1"/><path stroke="#fff178" d="M36 5h1M21 9h1m17 3h1m5 5h1m2 0h2m4 0h1m-42 1h1m41 0h1m-35 1h1m17 0h1m16 0h1m0 2h1M4 31h1m50 0h2M6 33h1m45 0h1M6 34h1m45 0h1m-43 1h1m35 0h1m-37 1h1m5 1h1m29 0h1m1 2h1m0 1h1m-40 9h1m22 0h1m18 1h1m-26 3h1m21 0h1m-36 2h1m10 0h2m13 0h1m6 1h1m-29 1h1m24 0h1"/><path stroke="rgba(252,242,131,0.76)" d="M37 5h1"/><path stroke="rgba(249,243,155,0.16)" d="M38 5h1"/><path stroke="rgba(252,245,142,0.31)" d="M21 6h1"/><path stroke="rgba(254,242,123,0.90)" d="M22 6h1"/><path stroke="#fef27a" d="M37 6h1m-3 32h1"/><path stroke="rgba(252,243,133,0.58)" d="M38 6h1"/><path stroke="rgba(255,255,170,0.04)" d="M39 6h1"/><path stroke="rgba(255,244,166,0.09)" d="M20 7h1"/><path stroke="rgba(254,243,128,0.73)" d="M21 7h1"/><path stroke="#fef276" d="M22 7h1m9 18h2m-8 1h1m9 1h1m-14 3h1m1 7h1"/><path stroke="rgba(254,242,125,0.89)" d="M38 7h1"/><path stroke="rgba(251,242,148,0.22)" d="M39 7h1m15 9h1"/><path stroke="rgba(252,243,144,0.33)" d="M20 8h1"/><path stroke="rgba(254,242,123,0.95)" d="M21 8h1"/><path stroke="#fff176" d="M22 8h1m14 0h1m15 9h1M23 34h1m0 2h1m20 0h1m-10 2h1m-11 1h2m1 1h4m-21 4h1m16 6h1m19 4h1"/><path stroke="#fff277" d="M38 8h1M24 25h1m9 0h1m0 1h1"/><path stroke="rgba(253,244,134,0.53)" d="M39 8h1"/><path stroke="rgba(255,255,255,0.01)" d="M40 8h1m10 6h1m-11 1h1M1 22h1m54 12h1M28 56h1"/><path stroke="rgba(255,255,204,0.02)" d="M19 9h1m21 4h1m8 1h1M8 16h1m5 0h1m-3 24h1m20 13h1m-24 2h1"/><path stroke="rgba(253,241,133,0.58)" d="M20 9h1"/><path stroke="rgba(252,242,129,0.79)" d="M39 9h1"/><path stroke="rgba(255,246,164,0.11)" d="M40 9h1"/><path stroke="rgba(255,242,166,0.08)" d="M19 10h1M9 46h1m44 0h1m-8 12h1"/><path stroke="rgba(254,242,130,0.75)" d="M20 10h1"/><path stroke="rgba(254,241,125,0.93)" d="M39 10h1m18 11h1"/><path stroke="rgba(251,244,147,0.28)" d="M40 10h1m5 48h1"/><path stroke="rgba(255,242,154,0.15)" d="M19 11h1"/><path stroke="rgba(254,242,128,0.85)" d="M20 11h1m-4 47h1"/><path stroke="rgba(255,241,121,0.99)" d="M39 11h1m4 6h1m14 9h1"/><path stroke="rgba(253,242,140,0.45)" d="M40 11h1"/><path stroke="rgba(250,245,145,0.20)" d="M19 12h1"/><path stroke="rgba(254,242,125,0.90)" d="M20 12h1"/><path stroke="rgba(253,242,134,0.55)" d="M40 12h1"/><path stroke="rgba(255,242,143,0.23)" d="M19 13h1"/><path stroke="rgba(254,242,124,0.92)" d="M20 13h1M2 24h1"/><path stroke="#fff179" d="M39 13h1m-1 1h1m17 6h1M38 33h1m-2 3h1m14 9h1M16 57h1"/><path stroke="rgba(253,244,132,0.62)" d="M40 13h1"/><path stroke="rgba(255,242,142,0.24)" d="M19 14h1"/><path stroke="rgba(254,242,124,0.92)" d="M20 14h1"/><path stroke="rgba(253,242,133,0.62)" d="M40 14h1"/><path stroke="rgba(255,255,191,0.02)" d="M49 14h1M27 57h1m14 2h1"/><path stroke="rgba(250,246,144,0.22)" d="M19 15h1"/><path stroke="rgba(254,242,124,0.91)" d="M20 15h1m-7 25h1"/><path stroke="#fff278" d="M39 15h1m-26 3h1m23 14h1M11 53h1"/><path stroke="rgba(253,243,134,0.57)" d="M40 15h1"/><path stroke="rgba(255,243,158,0.08)" d="M45 15h1"/><path stroke="rgba(250,245,144,0.21)" d="M46 15h1"/><path stroke="rgba(252,244,138,0.37)" d="M47 15h1"/><path stroke="rgba(253,243,133,0.49)" d="M48 15h1"/><path stroke="rgba(253,243,131,0.57)" d="M49 15h1"/><path stroke="rgba(253,242,132,0.60)" d="M50 15h1"/><path stroke="rgba(253,243,132,0.56)" d="M51 15h1"/><path stroke="rgba(253,242,134,0.47)" d="M52 15h1"/><path stroke="rgba(252,241,146,0.29)" d="M53 15h1"/><path stroke="rgba(255,240,165,0.07)" d="M54 15h1"/><path stroke="rgba(255,234,170,0.05)" d="M9 16h1"/><path stroke="rgba(255,242,161,0.07)" d="M10 16h1M4 35h1m9 23h1"/><path stroke="rgba(255,243,162,0.09)" d="M11 16h1"/><path stroke="rgba(255,241,156,0.07)" d="M12 16h1"/><path stroke="rgba(255,255,162,0.04)" d="M13 16h1"/><path stroke="rgba(249,243,148,0.17)" d="M19 16h1"/><path stroke="rgba(254,241,126,0.87)" d="M20 16h1"/><path stroke="rgba(254,241,121,1.00)" d="M39 16h1m8 0h1m-3 20h1m-8 20h1"/><path stroke="rgba(253,242,138,0.47)" d="M40 16h1"/><path stroke="rgba(255,255,179,0.04)" d="M42 16h1M3 19h1m48 35h1m-42 2h1m4 3h1"/><path stroke="rgba(250,241,148,0.22)" d="M43 16h1"/><path stroke="rgba(253,243,138,0.49)" d="M44 16h1M20 59h1"/><path stroke="rgba(254,243,130,0.75)" d="M45 16h1"/><path stroke="rgba(253,242,124,0.89)" d="M46 16h1"/><path stroke="rgba(254,242,122,0.97)" d="M47 16h1M2 25h1"/><path stroke="#fef278" d="M49 16h1m-8 2h1M24 29h1m26 14h1"/><path stroke="#fef178" d="M50 16h2M8 18h1m49 11h1M3 31h1m10 6h2m0 2h1m-3 17h1m10 0h1m16 1h1"/><path stroke="rgba(254,241,121,0.99)" d="M52 16h1"/><path stroke="rgba(253,242,125,0.93)" d="M53 16h1"/><path stroke="rgba(254,243,132,0.67)" d="M54 16h1"/><path stroke="rgba(255,247,151,0.13)" d="M6 17h1"/><path stroke="rgba(252,242,138,0.38)" d="M7 17h1"/><path stroke="rgba(253,241,132,0.58)" d="M8 17h1"/><path stroke="rgba(254,242,128,0.69)" d="M9 17h1"/><path stroke="rgba(254,242,128,0.75)" d="M10 17h1"/><path stroke="rgba(254,242,128,0.78)" d="M11 17h1"/><path stroke="rgba(254,242,128,0.75)" d="M12 17h1"/><path stroke="rgba(254,242,128,0.69)" d="M13 17h1"/><path stroke="rgba(253,243,133,0.59)" d="M14 17h1"/><path stroke="rgba(253,243,136,0.42)" d="M15 17h1"/><path stroke="rgba(251,246,143,0.22)" d="M16 17h1"/><path stroke="rgba(255,237,164,0.05)" d="M17 17h1m41 3h1"/><path stroke="rgba(255,246,153,0.12)" d="M19 17h1"/><path stroke="rgba(254,242,128,0.82)" d="M20 17h1"/><path stroke="rgba(254,242,126,0.95)" d="M39 17h1"/><path stroke="rgba(252,244,153,0.37)" d="M40 17h1"/><path stroke="rgba(251,244,150,0.27)" d="M41 17h1"/><path stroke="rgba(253,244,132,0.62)" d="M42 17h1"/><path stroke="rgba(254,243,125,0.88)" d="M43 17h1m-4 40h1"/><path stroke="rgba(254,242,128,0.84)" d="M55 17h1"/><path stroke="rgba(252,242,142,0.32)" d="M56 17h1"/><path stroke="rgba(255,255,191,0.03)" d="M4 18h1m31 38h1m2 2h1"/><path stroke="rgba(252,244,143,0.35)" d="M5 18h1"/><path stroke="rgba(252,242,129,0.77)" d="M6 18h1m42 21h1m2 13h1"/><path stroke="rgba(254,242,121,0.98)" d="M15 18h1"/><path stroke="rgba(253,242,125,0.90)" d="M16 18h1"/><path stroke="rgba(254,242,130,0.67)" d="M17 18h1"/><path stroke="rgba(252,245,141,0.31)" d="M18 18h1"/><path stroke="rgba(255,246,170,0.11)" d="M19 18h1"/><path stroke="rgba(254,242,132,0.71)" d="M20 18h1"/><path stroke="rgba(253,242,128,0.95)" d="M39 18h1"/><path stroke="rgba(252,243,137,0.75)" d="M40 18h1"/><path stroke="rgba(253,242,126,0.91)" d="M41 18h1"/><path stroke="rgba(254,242,126,0.87)" d="M56 18h1"/><path stroke="rgba(253,242,139,0.47)" d="M4 19h1"/><path stroke="rgba(254,241,125,0.92)" d="M5 19h1"/><path stroke="rgba(254,242,123,0.92)" d="M18 19h1"/><path stroke="rgba(253,242,135,0.64)" d="M19 19h1"/><path stroke="rgba(252,242,137,0.77)" d="M20 19h1"/><path stroke="#fef179" d="M40 19h1m13 14h1m-39 5h1m10 16h1"/><path stroke="rgba(253,241,129,0.81)" d="M57 19h1"/><path stroke="rgba(250,244,154,0.19)" d="M58 19h1m1 4h1"/><path stroke="rgba(252,242,140,0.39)" d="M3 20h1"/><path stroke="rgba(254,241,124,0.93)" d="M4 20h1m28 30h1"/><path stroke="#fef17a" d="M19 20h1M10 50h1m17 3h1"/><path stroke="rgba(254,241,123,0.99)" d="M20 20h1"/><path stroke="rgba(253,244,134,0.62)" d="M58 20h1"/><path stroke="rgba(249,244,153,0.18)" d="M2 21h1m35 36h1"/><path stroke="rgba(253,242,127,0.83)" d="M3 21h1"/><path stroke="#fef177" d="M4 21h1"/><path stroke="rgba(252,243,146,0.32)" d="M59 21h1"/><path stroke="rgba(253,243,134,0.51)" d="M2 22h1"/><path stroke="rgba(254,242,121,0.99)" d="M3 22h1"/><path stroke="rgba(254,242,134,0.67)" d="M59 22h1"/><path stroke="rgba(255,255,177,0.05)" d="M60 22h1m-7 28h1m-6 7h1"/><path stroke="rgba(255,246,158,0.11)" d="M1 23h1"/><path stroke="rgba(254,242,127,0.79)" d="M2 23h1"/><path stroke="rgba(254,242,126,0.87)" d="M59 23h1"/><path stroke="rgba(251,243,144,0.24)" d="M1 24h1"/><path stroke="#fef277" d="M26 24h8m-9 1h2m2 0h1m-6 1h2m-3 1h2m-2 1h2m-2 1h1m-4 28h1"/><path stroke="rgba(254,243,123,0.96)" d="M59 24h1"/><path stroke="rgba(252,243,145,0.34)" d="M60 24h1"/><path stroke="rgba(252,244,140,0.36)" d="M1 25h1"/><path stroke="#fff276" d="M27 25h1m10 6h1m-16 2h1"/><path stroke="#fef275" d="M28 25h1m-4 2h1m-3 4h1m-1 1h1m2 6h1"/><path stroke="#fef279" d="M30 25h2m-5 1h1"/><path stroke="rgba(254,241,121,0.99)" d="M59 25h1M49 35h1"/><path stroke="rgba(253,244,140,0.44)" d="M60 25h1M41 58h1"/><path stroke="rgba(253,243,139,0.42)" d="M1 26h1"/><path stroke="rgba(254,242,121,0.98)" d="M2 26h1m27 24h1m10 7h1"/><path stroke="#fef387" d="M28 26h1m-2 12h1"/><path stroke="#fef597" d="M29 26h1m-5 3h1"/><path stroke="#fef6a3" d="M30 26h2m-4 12h1"/><path stroke="#fef69b" d="M32 26h1"/><path stroke="#fef48d" d="M33 26h1"/><path stroke="#fef37c" d="M34 26h1"/><path stroke="rgba(253,242,139,0.46)" d="M60 26h1M34 53h1"/><path stroke="rgba(253,244,137,0.45)" d="M1 27h1"/><path stroke="rgba(254,242,120,0.99)" d="M2 27h1"/><path stroke="#fef37d" d="M26 27h1"/><path stroke="#fef69d" d="M27 27h1"/><path stroke="#fff8b5" d="M28 27h1m-4 7h1"/><path stroke="#fff9bc" d="M29 27h1m2 0h1m-4 1h6m-8 1h8m-8 1h9m-10 1h11m-11 1h11m-11 1h9m1 0h1m-11 1h8m-7 1h6m2 0h1m-8 1h5m-3 1h4"/><path stroke="#fff9bd" d="M30 27h2m-4 1h1m6 1h1m-10 1h1m-1 5h1m0 1h1m0 1h2"/><path stroke="#fff9b8" d="M33 27h1"/><path stroke="#fef7a6" d="M34 27h1"/><path stroke="#fef385" d="M35 27h1m0 1h1m0 7h1"/><path stroke="rgba(254,242,122,0.98)" d="M59 27h1"/><path stroke="rgba(252,242,140,0.40)" d="M60 27h1"/><path stroke="rgba(253,243,138,0.42)" d="M1 28h1"/><path stroke="rgba(254,241,121,0.98)" d="M2 28h1"/><path stroke="#fef27d" d="M25 28h1"/><path stroke="#fef6a2" d="M26 28h1"/><path stroke="#fff9bb" d="M27 28h1m-3 4h1m9 1h1m-2 1h2m-3 1h2m-2 1h2"/><path stroke="#fef7ad" d="M35 28h1"/><path stroke="rgba(254,242,126,0.92)" d="M59 28h1"/><path stroke="rgba(251,243,151,0.26)" d="M60 28h1"/><path stroke="rgba(252,243,141,0.33)" d="M1 29h1"/><path stroke="rgba(254,242,122,0.96)" d="M2 29h1"/><path stroke="#fff9ba" d="M26 29h1m-2 4h1m10 1h1"/><path stroke="#fff6a6" d="M36 29h1"/><path stroke="#fff17c" d="M37 29h1"/><path stroke="rgba(254,243,134,0.73)" d="M59 29h1"/><path stroke="rgba(255,243,174,0.09)" d="M60 29h1"/><path stroke="rgba(254,241,125,0.89)" d="M2 30h1m7 22h1"/><path stroke="#fef280" d="M24 30h1"/><path stroke="#fff7ae" d="M25 30h1"/><path stroke="#fff8b8" d="M36 30h1m-12 1h1"/><path stroke="#fef48c" d="M37 30h1"/><path stroke="rgba(253,242,127,0.94)" d="M58 30h1"/><path stroke="rgba(252,244,151,0.36)" d="M59 30h1"/><path stroke="rgba(255,239,159,0.06)" d="M1 31h1"/><path stroke="rgba(254,242,130,0.70)" d="M2 31h1"/><path stroke="#fef48a" d="M24 31h1m0 5h1"/><path stroke="#fef69a" d="M37 31h1"/><path stroke="rgba(254,242,125,0.97)" d="M57 31h1"/><path stroke="rgba(251,243,142,0.56)" d="M58 31h1"/><path stroke="rgba(255,255,182,0.05)" d="M59 31h1m-3 2h1"/><path stroke="rgba(252,244,144,0.36)" d="M2 32h1m49 21h1m-31 6h1"/><path stroke="rgba(253,242,124,0.95)" d="M3 32h1"/><path stroke="#fef591" d="M24 32h1"/><path stroke="#fef6a1" d="M37 32h1m-1 1h1"/><path stroke="rgba(253,242,125,0.95)" d="M56 32h1"/><path stroke="rgba(251,242,140,0.55)" d="M57 32h1"/><path stroke="rgba(255,243,170,0.08)" d="M58 32h1m-8 23h1"/><path stroke="rgba(255,239,175,0.06)" d="M2 33h1"/><path stroke="rgba(253,242,136,0.60)" d="M3 33h1"/><path stroke="rgba(254,241,122,0.99)" d="M4 33h1m6 12h1"/><path stroke="#fef590" d="M24 33h1"/><path stroke="rgba(253,242,130,0.85)" d="M55 33h1"/><path stroke="rgba(253,243,146,0.42)" d="M56 33h1"/><path stroke="rgba(255,246,155,0.11)" d="M3 34h1"/><path stroke="rgba(253,242,135,0.61)" d="M4 34h1"/><path stroke="rgba(254,240,124,0.96)" d="M5 34h1"/><path stroke="#fef386" d="M24 34h1"/><path stroke="#fef596" d="M37 34h1"/><path stroke="rgba(254,242,126,0.93)" d="M53 34h1"/><path stroke="rgba(253,243,134,0.65)" d="M54 34h1"/><path stroke="rgba(251,242,154,0.23)" d="M55 34h1"/><path stroke="rgba(253,244,141,0.45)" d="M5 35h1"/><path stroke="rgba(253,242,128,0.85)" d="M6 35h1"/><path stroke="rgba(254,241,122,1.00)" d="M7 35h1"/><path stroke="#fef27c" d="M24 35h1m11 2h1m-4 2h1"/><path stroke="#fef6a6" d="M25 35h1"/><path stroke="#fff8b1" d="M36 35h1m-8 3h1"/><path stroke="rgba(255,241,121,1.00)" d="M47 35h2m-4 22h1"/><path stroke="rgba(254,242,123,0.95)" d="M50 35h1"/><path stroke="rgba(254,242,128,0.85)" d="M51 35h1"/><path stroke="rgba(253,242,138,0.64)" d="M52 35h1"/><path stroke="rgba(252,242,150,0.31)" d="M53 35h1"/><path stroke="rgba(250,245,152,0.20)" d="M6 36h1"/><path stroke="rgba(251,243,138,0.56)" d="M7 36h1"/><path stroke="rgba(253,242,128,0.86)" d="M8 36h1"/><path stroke="rgba(254,242,123,0.98)" d="M9 36h1"/><path stroke="#fff8b4" d="M26 36h1m5 2h1"/><path stroke="#fff9b9" d="M35 36h1"/><path stroke="#fef598" d="M36 36h1"/><path stroke="rgba(252,242,135,0.75)" d="M47 36h1"/><path stroke="rgba(253,243,137,0.50)" d="M48 36h1"/><path stroke="rgba(253,244,137,0.44)" d="M49 36h1"/><path stroke="rgba(252,246,145,0.32)" d="M50 36h1"/><path stroke="rgba(249,243,158,0.16)" d="M51 36h1"/><path stroke="rgba(255,255,185,0.04)" d="M52 36h1"/><path stroke="rgba(255,255,182,0.03)" d="M7 37h1m35 22h1"/><path stroke="rgba(250,245,156,0.19)" d="M8 37h1m20 17h1"/><path stroke="rgba(253,242,143,0.46)" d="M9 37h1"/><path stroke="rgba(254,242,135,0.71)" d="M10 37h1"/><path stroke="rgba(253,242,130,0.87)" d="M11 37h1"/><path stroke="rgba(254,242,125,0.95)" d="M12 37h1"/><path stroke="rgba(254,241,122,0.98)" d="M13 37h1"/><path stroke="#fef58f" d="M26 37h1"/><path stroke="#fff8b2" d="M27 37h1"/><path stroke="#fff8b6" d="M34 37h1m-5 1h1"/><path stroke="rgba(254,245,155,1.00)" d="M35 37h1"/><path stroke="rgba(254,242,129,0.79)" d="M47 37h1"/><path stroke="rgba(251,242,147,0.23)" d="M48 37h1m0 1h1"/><path stroke="rgba(255,241,170,0.07)" d="M10 38h1m19 15h1"/><path stroke="rgba(250,244,159,0.19)" d="M11 38h1"/><path stroke="rgba(252,245,150,0.31)" d="M12 38h1"/><path stroke="rgba(253,244,145,0.44)" d="M13 38h1"/><path stroke="rgba(253,243,140,0.57)" d="M14 38h1"/><path stroke="rgba(253,242,133,0.85)" d="M15 38h1"/><path stroke="#fff275" d="M25 38h1"/><path stroke="#fff9b7" d="M31 38h1"/><path stroke="#fef7a7" d="M33 38h1"/><path stroke="#fef48e" d="M34 38h1"/><path stroke="rgba(252,242,127,0.80)" d="M48 38h1"/><path stroke="rgba(255,255,255,0.02)" d="M13 39h1"/><path stroke="rgba(252,244,145,0.36)" d="M14 39h1"/><path stroke="rgba(254,242,127,0.87)" d="M15 39h1"/><path stroke="#fff17a" d="M28 39h1"/><path stroke="#fef281" d="M29 39h1"/><path stroke="#fff389" d="M30 39h1"/><path stroke="#fef38a" d="M31 39h1"/><path stroke="#fef384" d="M32 39h1"/><path stroke="rgba(249,244,150,0.18)" d="M50 39h1"/><path stroke="rgba(252,242,138,0.40)" d="M13 40h1"/><path stroke="rgba(254,242,133,0.68)" d="M50 40h1"/><path stroke="rgba(255,245,163,0.10)" d="M51 40h1"/><path stroke="rgba(252,243,143,0.33)" d="M12 41h1"/><path stroke="rgba(254,242,124,0.90)" d="M13 41h1"/><path stroke="rgba(251,241,139,0.51)" d="M51 41h1"/><path stroke="rgba(255,242,153,0.16)" d="M11 42h1"/><path stroke="rgba(254,242,128,0.80)" d="M12 42h1"/><path stroke="rgba(254,242,126,0.90)" d="M51 42h1"/><path stroke="rgba(251,244,146,0.27)" d="M52 42h1M33 52h1"/><path stroke="rgba(255,255,212,0.02)" d="M10 43h1m1 14h1m11 2h1m19 0h1"/><path stroke="rgba(253,244,137,0.53)" d="M11 43h1"/><path stroke="rgba(254,241,122,0.99)" d="M12 43h1m11 14h1"/><path stroke="rgba(252,242,135,0.67)" d="M52 43h1"/><path stroke="rgba(250,245,153,0.20)" d="M10 44h1"/><path stroke="rgba(253,242,126,0.87)" d="M11 44h1"/><path stroke="rgba(254,242,126,0.92)" d="M52 44h1"/><path stroke="rgba(251,244,146,0.27)" d="M53 44h1"/><path stroke="rgba(253,242,138,0.46)" d="M10 45h1"/><path stroke="rgba(253,242,137,0.54)" d="M53 45h1"/><path stroke="rgba(254,243,129,0.73)" d="M10 46h1"/><path stroke="rgba(254,242,132,0.75)" d="M53 46h1"/><path stroke="rgba(250,246,148,0.22)" d="M9 47h1m30 11h1"/><path stroke="rgba(253,242,127,0.90)" d="M10 47h1"/><path stroke="rgba(254,242,126,0.85)" d="M53 47h1"/><path stroke="rgba(248,242,150,0.15)" d="M54 47h1"/><path stroke="rgba(252,242,142,0.38)" d="M9 48h1"/><path stroke="rgba(254,241,123,0.97)" d="M10 48h1"/><path stroke="rgba(254,242,121,1.00)" d="M31 48h1"/><path stroke="rgba(254,241,124,0.99)" d="M32 48h1"/><path stroke="rgba(254,242,125,0.87)" d="M53 48h1"/><path stroke="rgba(249,243,151,0.17)" d="M54 48h1"/><path stroke="rgba(253,243,134,0.49)" d="M9 49h1"/><path stroke="rgba(253,242,130,0.84)" d="M31 49h1"/><path stroke="rgba(252,243,139,0.75)" d="M32 49h1"/><path stroke="rgba(254,242,128,0.83)" d="M53 49h1"/><path stroke="rgba(248,248,158,0.13)" d="M54 49h1"/><path stroke="rgba(253,243,139,0.50)" d="M9 50h1"/><path stroke="rgba(253,242,142,0.47)" d="M31 50h1"/><path stroke="rgba(252,245,148,0.31)" d="M32 50h1"/><path stroke="rgba(254,242,134,0.68)" d="M53 50h1"/><path stroke="rgba(254,241,123,0.98)" d="M10 51h1"/><path stroke="rgba(252,242,129,0.80)" d="M30 51h1"/><path stroke="rgba(248,240,160,0.14)" d="M31 51h1"/><path stroke="rgba(254,242,133,0.68)" d="M33 51h1"/><path stroke="rgba(254,241,123,0.97)" d="M52 51h1"/><path stroke="rgba(252,242,144,0.40)" d="M53 51h1m-24 1h1"/><path stroke="rgba(250,246,151,0.21)" d="M9 52h1"/><path stroke="rgba(254,242,125,0.96)" d="M29 52h1"/><path stroke="rgba(254,242,126,0.89)" d="M34 52h1m-22 4h1"/><path stroke="rgba(255,247,156,0.12)" d="M53 52h1"/><path stroke="rgba(255,255,170,0.05)" d="M9 53h1"/><path stroke="rgba(253,242,132,0.63)" d="M10 53h1"/><path stroke="rgba(252,241,137,0.66)" d="M29 53h1"/><path stroke="rgba(254,241,123,0.96)" d="M35 53h1"/><path stroke="rgba(253,241,127,0.93)" d="M51 53h1"/><path stroke="rgba(251,243,146,0.25)" d="M10 54h1"/><path stroke="rgba(254,242,126,0.88)" d="M11 54h1"/><path stroke="rgba(253,243,131,0.80)" d="M28 54h1"/><path stroke="rgba(255,235,157,0.05)" d="M34 54h1"/><path stroke="rgba(253,244,135,0.53)" d="M35 54h1"/><path stroke="rgba(254,243,122,0.96)" d="M36 54h1"/><path stroke="rgba(254,242,123,0.97)" d="M50 54h1"/><path stroke="rgba(251,244,141,0.53)" d="M51 54h1"/><path stroke="rgba(253,243,142,0.42)" d="M11 55h1"/><path stroke="rgba(254,241,124,0.94)" d="M12 55h1"/><path stroke="rgba(253,242,128,0.88)" d="M27 55h1"/><path stroke="rgba(252,245,149,0.30)" d="M28 55h1"/><path stroke="rgba(253,243,137,0.49)" d="M36 55h1m8 3h1"/><path stroke="rgba(254,242,124,0.93)" d="M37 55h1"/><path stroke="rgba(254,241,122,0.98)" d="M49 55h1"/><path stroke="rgba(253,243,137,0.60)" d="M50 55h1"/><path stroke="rgba(253,244,141,0.44)" d="M12 56h1"/><path stroke="rgba(253,242,129,0.88)" d="M26 56h1"/><path stroke="rgba(252,244,148,0.36)" d="M27 56h1"/><path stroke="rgba(252,244,141,0.37)" d="M37 56h1"/><path stroke="rgba(253,242,128,0.82)" d="M38 56h1"/><path stroke="rgba(254,242,125,0.94)" d="M48 56h1"/><path stroke="rgba(253,243,137,0.57)" d="M49 56h1"/><path stroke="rgba(255,244,159,0.09)" d="M50 56h1"/><path stroke="rgba(252,245,147,0.29)" d="M13 57h1"/><path stroke="rgba(254,243,133,0.69)" d="M14 57h1"/><path stroke="rgba(254,242,124,0.94)" d="M15 57h1"/><path stroke="rgba(252,242,131,0.78)" d="M25 57h1"/><path stroke="rgba(252,245,153,0.29)" d="M26 57h1"/><path stroke="rgba(253,243,135,0.57)" d="M39 57h1"/><path stroke="rgba(254,242,125,0.93)" d="M46 57h1"/><path stroke="rgba(254,242,132,0.72)" d="M47 57h1"/><path stroke="rgba(252,244,146,0.35)" d="M48 57h1"/><path stroke="rgba(252,243,146,0.33)" d="M15 58h1"/><path stroke="rgba(253,243,134,0.64)" d="M16 58h1"/><path stroke="rgba(254,242,123,0.95)" d="M18 58h1"/><path stroke="rgba(254,242,122,0.98)" d="M19 58h1"/><path stroke="rgba(254,242,120,1.00)" d="M20 58h2"/><path stroke="rgba(254,242,124,0.96)" d="M22 58h1"/><path stroke="rgba(253,242,130,0.85)" d="M23 58h1"/><path stroke="rgba(251,244,140,0.54)" d="M24 58h1"/><path stroke="rgba(255,242,157,0.15)" d="M25 58h1m-9 1h1"/><path stroke="rgba(253,243,134,0.58)" d="M42 58h1"/><path stroke="rgba(253,242,131,0.63)" d="M43 58h1"/><path stroke="rgba(253,242,136,0.61)" d="M44 58h1"/><path stroke="rgba(252,245,144,0.30)" d="M18 59h1"/><path stroke="rgba(253,243,143,0.43)" d="M19 59h1"/><path stroke="rgba(253,243,139,0.48)" d="M21 59h1"/><path stroke="rgba(249,243,156,0.17)" d="M23 59h1"/></svg>